<?xml version="1.0" encoding="utf-8"?>
<!-- Generator: Adobe Illustrator 24.0.0, SVG Export Plug-In . SVG Version: 6.00 Build 0)  -->
<svg version="1.1" id="图层_1" xmlns="http://www.w3.org/2000/svg" xmlns:xlink="http://www.w3.org/1999/xlink" x="0px" y="0px"
	 viewBox="0 0 750 581" style="enable-background:new 0 0 750 581;" xml:space="preserve">
<style type="text/css">
	.st0{fill-rule:evenodd;clip-rule:evenodd;fill:#FFFFFF;}
	.st1{fill:none;stroke:#888888;stroke-width:0.7;}
	.st2{fill:#FFFFFF;}
	.st3{fill-rule:evenodd;clip-rule:evenodd;fill:#888888;}
	.st4{fill:none;stroke:#888888;stroke-width:0.7;stroke-linecap:square;}
	.st5{fill-rule:evenodd;clip-rule:evenodd;fill:#EAEBEC;}
	.st6{fill-rule:evenodd;clip-rule:evenodd;fill:#D7D7D7;}
	.st7{fill-rule:evenodd;clip-rule:evenodd;fill:#FFFFFF;stroke:#E6E6E6;stroke-width:0.7;}
	.st8{fill:none;stroke:#D4D4D4;stroke-width:0.7;stroke-dasharray:4;}
	.st9{fill:none;stroke:#888888;stroke-width:0.7;stroke-linecap:square;stroke-dasharray:3;}
	.st10{fill:none;stroke:#888888;stroke-width:0.7;stroke-dasharray:4;}
	.st11{fill-rule:evenodd;clip-rule:evenodd;fill:#00A4FF;}
	.st12{fill:#00A4FF;}
	.st13{fill-rule:evenodd;clip-rule:evenodd;fill:#FFFFFF;stroke:#979797;stroke-width:1.5;}
	.st14{fill:none;stroke:#979797;stroke-width:1.5;stroke-linecap:square;}
	.st15{fill-rule:evenodd;clip-rule:evenodd;fill:#D8D8D8;stroke:#979797;stroke-width:1.5;}
	.st16{fill-rule:evenodd;clip-rule:evenodd;fill:#D8D8D8;stroke:#979797;}
	.st17{fill:#888888;}
	.st18{font-family:'PingFangSC-Medium-GBpc-EUC-H';}
	.st19{font-size:12px;}
	.st20{enable-background:new    ;}
	.st21{fill:#444444;}
	.st22{fill:none;stroke:#888888;stroke-width:0.7;stroke-linecap:square;stroke-dasharray:4;}
	.st23{fill:#00A3FF;}
	.st24{fill:#00C5D9;}
	.st25{fill:#006EFF;}
</style>
<rect class="st0" width="750" height="581"/>
<polyline id="路径" class="st1" points="209,282 195.5,282 195.5,530 161,530 "/>
<g>
	<rect id="path-1_2_" x="12" y="112" class="st2" width="166" height="330"/>
</g>
<g>
	<rect id="path-3_2_" x="572" y="112" class="st2" width="151" height="330"/>
</g>
<g id="箭头备份-2" transform="translate(374.500000, 85.500000) scale(1, -1) translate(-374.500000, -85.500000) translate(371.000000, 53.000000)">
	<polygon id="三角形" class="st3" points="-6.5,65 -10,60.7 -3,60.7 	"/>
	<line id="直线" class="st4" x1="-6.5" y1="0.5" x2="-6.5" y2="61.3"/>
</g>
<rect id="矩形" x="209" y="112" class="st5" width="332" height="330"/>
<g id="箭头备份-3" transform="translate(663.500000, 79.500000) scale(1, -1) translate(-663.500000, -79.500000) translate(660.000000, 47.000000)">
	<polygon id="三角形_1_" class="st3" points="-10.5,65 -14,60.7 -7,60.7 	"/>
	<line id="直线_1_" class="st4" x1="-10.5" y1="0.5" x2="-10.5" y2="61.3"/>
</g>
<g id="箭头备份-7" transform="translate(391.500000, 242.500000) scale(1, -1) translate(-391.500000, -242.500000) translate(388.000000, 210.000000)">
	<polygon id="三角形_2_" class="st3" points="-6.5,65 -10,60.7 -3,60.7 	"/>
	<line id="直线_2_" class="st4" x1="-6.5" y1="0.5" x2="-6.5" y2="61.3"/>
</g>
<g id="箭头备份-8" transform="translate(379.000000, 191.000000)">
	<polygon id="三角形_3_" class="st3" points="-6.5,65 -10,60.7 -3,60.7 	"/>
	<line id="直线_3_" class="st4" x1="-6.5" y1="0.5" x2="-6.5" y2="61.3"/>
</g>
<g id="箭头备份" transform="translate(380.000000, 44.000000)">
	<polygon id="三角形_4_" class="st3" points="-6.5,65 -10,60.7 -3,60.7 	"/>
	<line id="直线_4_" class="st4" x1="-6.5" y1="0.5" x2="-6.5" y2="61.3"/>
</g>
<g id="编组" transform="translate(315.000000, 8.000000)">
	<rect id="矩形备份" x="-8.9" y="1.1" class="st6" width="127.9" height="41.9"/>
	<rect id="矩形_1_" x="-9.7" y="0.3" class="st7" width="127.2" height="41.2"/>
</g>
<g id="编组_1_" transform="translate(44.000000, 3.000000)">
	<rect id="矩形备份_1_" x="2.1" y="2.2" class="st6" width="98.9" height="40.8"/>
	<rect id="矩形_2_" x="1.3" y="0.3" class="st7" width="98.2" height="41.2"/>
</g>
<g id="编组备份-5" transform="translate(39.000000, 168.000000)">
	<rect id="矩形备份_2_" x="2.1" y="2.2" class="st6" width="111.9" height="40.8"/>
	<rect id="矩形_3_" x="1.3" y="0.3" class="st7" width="111.2" height="41.2"/>
</g>
<g id="编组备份-8" transform="translate(605.000000, 173.000000)">
	<rect id="矩形备份_3_" x="-12.9" y="2.2" class="st6" width="111.9" height="40.8"/>
	<rect id="矩形_4_" x="-13.7" y="0.3" class="st7" width="111.2" height="41.2"/>
</g>
<g id="编组备份-10" transform="translate(604.000000, 346.000000)">
	<rect id="矩形备份_4_" x="-12.9" y="2.2" class="st6" width="114.9" height="40.8"/>
	<rect id="矩形_5_" x="-13.7" y="0.3" class="st7" width="114.2" height="41.2"/>
</g>
<g id="编组备份-9" transform="translate(598.000000, 259.000000)">
	<rect id="矩形备份_5_" x="-12.9" y="2.2" class="st6" width="127.9" height="40.8"/>
	<rect id="矩形_6_" x="-13.7" y="0.3" class="st7" width="127.2" height="41.2"/>
</g>
<g id="编组备份-6" transform="translate(41.000000, 257.000000)">
	<rect id="矩形备份_6_" x="2.1" y="2.2" class="st6" width="106.9" height="40.8"/>
	<rect id="矩形_7_" x="1.3" y="0.3" class="st7" width="106.2" height="41.2"/>
</g>
<g id="编组备份-7" transform="translate(25.000000, 348.000000)">
	<rect id="矩形备份_7_" x="2.1" y="2.1" class="st6" width="139.9" height="40.8"/>
	<rect id="矩形_8_" x="1.3" y="0.3" class="st7" width="139.2" height="41.2"/>
	<rect id="矩形备份-3" x="1.3" y="161.5" class="st7" width="139.2" height="41.2"/>
</g>
<g id="编组备份-2" transform="translate(25.000000, 509.000000)">
	<rect id="矩形备份_8_" x="3.2" y="2.2" class="st6" width="136.8" height="40.8"/>
	<rect id="矩形_9_" x="1.3" y="0.3" class="st7" width="139.3" height="41.2"/>
</g>
<g id="编组备份-4" transform="translate(592.000000, 505.000000)">
	<rect id="矩形备份_9_" x="-11.8" y="2.2" class="st6" width="138.8" height="40.8"/>
	<rect id="矩形_10_" x="-13.7" y="0.3" class="st7" width="139.2" height="41.2"/>
</g>
<g id="编组备份-3" transform="translate(237.000000, 509.000000)">
	<rect id="矩形备份_10_" x="-7.8" y="2.2" class="st6" width="150.8" height="40.8"/>
	<rect id="矩形_11_" x="-9.7" y="0.3" class="st7" width="151.2" height="41.2"/>
</g>
<g id="编组备份" transform="translate(613.000000, 3.000000)">
	<rect id="矩形备份_11_" x="-12.9" y="2.2" class="st6" width="98.9" height="40.8"/>
	<rect id="矩形_12_" x="-13.7" y="0.3" class="st7" width="98.2" height="41.2"/>
</g>
<g id="矩形_13_">
	<rect id="path-1_1_" x="12" y="112" class="st8" width="166" height="330"/>
</g>
<g id="矩形备份-2">
	<rect id="path-3_1_" x="572" y="112" class="st8" width="151" height="330"/>
</g>
<g id="箭头" transform="translate(90.000000, 44.000000)">
	<polygon id="三角形_5_" class="st3" points="4.5,65 1,60.7 8,60.7 	"/>
	<line id="直线_5_" class="st4" x1="4.5" y1="0.5" x2="4.5" y2="61.3"/>
</g>
<g id="箭头备份-4" transform="translate(90.000000, 443.000000)">
	<polygon id="三角形_6_" class="st3" points="4.5,62 1,57.7 8,57.7 	"/>
	<line id="直线_6_" class="st4" x1="4.5" y1="0.5" x2="4.5" y2="58.3"/>
</g>
<g id="箭头备份-6" transform="translate(663.500000, 475.500000) scale(1, -1) translate(-663.500000, -475.500000) translate(660.000000, 447.000000)">
	<polygon id="三角形_7_" class="st3" points="-10.5,57 -14,52.8 -7,52.8 	"/>
	<line id="直线_7_" class="st4" x1="-10.5" y1="0.5" x2="-10.5" y2="53.4"/>
</g>
<polygon id="三角形_8_" class="st3" points="299.5,506 296,502 303,502 "/>
<line id="直线_8_" class="st9" x1="299.5" y1="391.5" x2="299.5" y2="502.5"/>
<g id="箭头右二" transform="translate(552.000000, 282.000000)">
	<polygon id="三角形备份" class="st3" points="26.5,243.2 22.2,247 22.2,239.5 	"/>
	<polyline id="路径-2" class="st1" points="-11,0 -6,0 -6,243.8 23.8,243.8 	"/>
</g>
<g id="虚线箭头" transform="translate(313.000000, 548.000000)">
	<polygon id="三角形备份-2" class="st3" points="337.7,0 341.5,4.3 334,4.3 	"/>
	<path id="路径-3" class="st10" d="M-12.9,3.2v23.4h350.6V3.2"/>
</g>
<g id="_x31_521191491073-32" transform="translate(253.000000, 519.000000)">
	<path id="_复合路径_" class="st11" d="M11.1,9.1V9c0-4.4-3.6-8-8.1-8s-8.1,3.6-8.1,8v0.1c-3,0.6-5.1,3.3-4.9,6.3
		s2.7,5.4,5.7,5.6l0,0h5.7v-1.6h-5.3h-0.3c-2.2-0.1-4-1.9-4.2-4.1s1.4-4.2,3.6-4.6l1.3-0.3V9.1V9c0-3.5,2.9-6.4,6.5-6.4
		S9.5,5.5,9.5,9v0.1v1.3l1.3,0.3c2.2,0.5,3.6,2.4,3.5,4.6c-0.2,2.2-1.9,3.9-4.1,4.1H10H4.6V21h5.7l0,0c3-0.2,5.5-2.6,5.7-5.6
		S14.1,9.7,11.1,9.1L11.1,9.1z M6.5,12.3L1.2,9C1.1,9,1.1,8.9,1,8.9c-0.2,0-0.4,0.2-0.4,0.4v6.5c0,0.1,0,0.2,0.1,0.3
		c0.1,0.1,0.2,0.1,0.3,0.1s0.2,0,0.2-0.1l5.3-3.3c0.1-0.1,0.2-0.2,0.2-0.3C6.7,12.5,6.7,12.3,6.5,12.3z M2.2,13.7v-2.2L4,12.6
		L2.2,13.7z"/>
</g>
<g id="_x31_505986434934-32" transform="translate(609.000000, 512.000000)">
	<path id="形状" class="st12" d="M-2,25.4c-5.7,0-10.4-4.6-10.4-10.4S-7.7,4.6-2,4.6c5.2,0,9.6,3.8,10.3,8.8h1.6
		C9.2,7.6,4.1,3-2,3c-6.6,0-12,5.4-12,12s5.4,12,12,12c6.1,0,11.2-4.6,12-10.4H8.4C7.6,21.6,3.3,25.4-2,25.4z M3.7,11.8L-2,8.6
		l-5.6,3.2v6.4l2.6,1.4c0.2-0.6,0.5-1,0.8-1.4l-1.8-1v-3l4,2.3l4-2.3v3l-3.3,1.9C-1.5,19.1-1.7,19-2,19c-0.9,0-1.6,0.7-1.6,1.6
		s0.7,1.6,1.6,1.6s1.6-0.7,1.6-1.6v-0.1l4-2.3v-6.4C3.6,11.8,3.7,11.8,3.7,11.8z M-2,14.8l-3.7-2.2l3.7-2.2l3.8,2.2L-2,14.8z"/>
</g>
<g id="_x31_521197655074-32" transform="translate(43.000000, 515.000000)">
	<g id="编组_2_">
		<g id="_编组_">
			<polygon id="路径_1_" class="st12" points="22.4,21.3 12.5,27.1 2.6,21.3 2.6,9.7 12.5,3.9 22.4,9.7 22.4,9.7 24,8.8 12.5,2 
				1,8.8 1,22.2 12.5,29 24,22.2 24,12.1 22.4,13.1 			"/>
		</g>
		<g id="路径_2_" transform="translate(5.750000, 6.750000)">
			<polygon class="st12" points="2.6,6.4 3.2,6 3.5,5.9 3.5,5.9 6.8,3.9 10.9,6.4 10.9,9.5 12.5,8.5 12.5,5.4 6.8,2 1,5.4 1,7.3 			
				"/>
			<polygon class="st12" points="10.9,11.1 10.9,11.1 6.8,13.6 2.6,11.1 2.6,8 1,9 1,12.1 6.8,15.5 12.5,12.1 12.5,10.2 			"/>
		</g>
	</g>
	<path id="路径_3_" class="st12" d="M10.4,14.3v3.5c0,0.1,0.1,0.3,0.2,0.4c0.1,0.1,0.3,0.1,0.5,0l3.3-1.7c0.1-0.1,0.2-0.2,0.2-0.4
		c0-0.1-0.1-0.3-0.2-0.4L11.1,14c-0.1-0.1-0.3-0.1-0.5,0C10.5,14,10.4,14.2,10.4,14.3z"/>
</g>
<g id="人icon" transform="translate(629.000000, 11.000000)">
	<ellipse id="椭圆形" class="st13" cx="3.3" cy="6.3" rx="3.6" ry="3.4"/>
	<path id="形状结合" class="st13" d="M-7.8,20.2h19.1v-0.7c0-4-3.2-7.2-7.2-7.2h-4.6c-4,0-7.3,3.2-7.3,7.2
		C-7.8,19.5-7.8,20.2-7.8,20.2z"/>
	<rect id="矩形_14_" x="-3.2" class="st0" width="5.4" height="11.5"/>
	<rect id="矩形备份-4" x="-5.3" y="11.5" class="st0" width="10.8" height="10.5"/>
	<rect id="矩形备份-5" x="-3.2" y="17.8" class="st0" width="10.8" height="4.2"/>
	<g id="编组-2" transform="translate(0.000000, 2.095238)">
		<ellipse id="椭圆形_1_" class="st13" cx="-3.7" cy="4.7" rx="4.1" ry="4"/>
		<path id="形状结合_1_" class="st13" d="M-13.2,19.2H5.9v-0.7c0-4-3.2-7.2-7.3-7.2H-6c-4,0-7.2,3.2-7.2,7.2
			C-13.2,18.5-13.2,19.2-13.2,19.2z"/>
	</g>
</g>
<g id="人icon备份" transform="translate(331.000000, 16.000000)">
	<ellipse id="椭圆形_2_" class="st13" cx="7.3" cy="6.3" rx="3.6" ry="3.4"/>
	<path id="形状结合_2_" class="st13" d="M-3.8,20.2h19.1v-0.7c0-4-3.2-7.2-7.2-7.2H3.5c-4,0-7.3,3.2-7.3,7.2
		C-3.8,19.5-3.8,20.2-3.8,20.2z"/>
	<rect id="矩形_15_" x="0.8" class="st0" width="5.4" height="11.5"/>
	<rect id="矩形备份-4_1_" x="-1.3" y="11.5" class="st0" width="10.8" height="10.5"/>
	<rect id="矩形备份-5_1_" x="0.8" y="17.8" class="st0" width="10.8" height="4.2"/>
	<g id="编组-2_1_" transform="translate(0.000000, 2.095238)">
		<ellipse id="椭圆形_3_" class="st13" cx="0.3" cy="4.7" rx="4.1" ry="4"/>
		<path id="形状结合_3_" class="st13" d="M-9.2,19.2H9.9v-0.7c0-4-3.2-7.2-7.3-7.2H-2c-4,0-7.2,3.2-7.2,7.2
			C-9.2,18.5-9.2,19.2-9.2,19.2z"/>
	</g>
</g>
<g id="人icon备份-2" transform="translate(60.000000, 11.000000)">
	<ellipse id="椭圆形_4_" class="st13" cx="18.3" cy="6.3" rx="3.6" ry="3.4"/>
	<path id="形状结合_4_" class="st13" d="M7.2,20.2h19.1v-0.7c0-4-3.2-7.2-7.2-7.2h-4.6c-4,0-7.3,3.2-7.3,7.2
		C7.2,19.5,7.2,20.2,7.2,20.2z"/>
	<rect id="矩形_16_" x="11.8" class="st0" width="5.4" height="11.5"/>
	<rect id="矩形备份-4_2_" x="9.7" y="11.5" class="st0" width="10.8" height="10.5"/>
	<rect id="矩形备份-5_2_" x="11.8" y="17.8" class="st0" width="10.8" height="4.2"/>
	<g id="编组-2_2_" transform="translate(0.000000, 2.095238)">
		<ellipse id="椭圆形_5_" class="st13" cx="11.3" cy="4.7" rx="4.1" ry="4"/>
		<path id="形状结合_5_" class="st13" d="M1.8,19.2h19.1v-0.7c0-4-3.2-7.2-7.3-7.2H9c-4,0-7.2,3.2-7.2,7.2
			C1.8,18.5,1.8,19.2,1.8,19.2z"/>
	</g>
</g>
<g id="手机icon" transform="translate(59.000000, 175.000000)">
	<rect id="矩形_17_" x="1.8" y="2.8" class="st13" width="16.5" height="22.5"/>
	<line id="直线-2" class="st14" x1="2.6" y1="20.3" x2="17.4" y2="20.3"/>
	<rect id="矩形_18_" x="9.2" y="22.6" class="st15" width="1.4" height="1"/>
</g>
<g id="手机icon2" transform="translate(627.000000, 181.000000)">
	<rect id="矩形_19_" x="-13.2" y="1.8" class="st13" width="16.5" height="22.5"/>
	<line id="直线-2_1_" class="st14" x1="-12.4" y1="19.3" x2="2.4" y2="19.3"/>
	<rect id="矩形_20_" x="-5.8" y="21.6" class="st15" width="1.4" height="1"/>
</g>
<g id="pc-icon" transform="translate(59.000000, 266.000000)">
	<rect id="矩形_21_" x="1.8" y="2.8" class="st13" width="21.5" height="14.3"/>
	<line id="直线-3" class="st14" x1="5.7" y1="21.5" x2="19.3" y2="21.5"/>
	<line id="直线-4" class="st14" x1="9.9" y1="19.4" x2="9.9" y2="21.5"/>
	<line id="直线-4备份" class="st14" x1="15.1" y1="19.4" x2="15.1" y2="21.5"/>
</g>
<g id="pc-icon备份" transform="translate(622.000000, 355.000000)">
	<rect id="矩形_22_" x="-13.2" y="2.9" class="st13" width="21.5" height="14.3"/>
	<line id="直线-3_1_" class="st14" x1="-9.3" y1="21.6" x2="4.3" y2="21.6"/>
	<line id="直线-4_1_" class="st14" x1="-5.1" y1="19.5" x2="-5.1" y2="21.6"/>
	<line id="直线-4备份_1_" class="st14" x1="0.1" y1="19.5" x2="0.1" y2="21.6"/>
</g>
<g id="拍摄icon" transform="translate(43.000000, 362.000000)">
	<rect id="矩形_23_" x="1.8" y="3.8" class="st13" width="22.5" height="8.5"/>
	<rect id="矩形_24_" x="4.6" y="7.9" class="st16" width="1" height="1"/>
	<rect id="矩形备份-7" x="9.8" y="7.9" class="st16" width="1" height="1"/>
	<rect id="矩形备份-6" x="7.2" y="7.9" class="st16" width="1" height="1"/>
</g>
<g id="浏览器icon" transform="translate(617.000000, 269.000000)">
	<rect id="矩形_25_" x="-13.2" y="2.8" class="st13" width="21.5" height="18.5"/>
	<line id="直线-5" class="st14" x1="-12.4" y1="7.8" x2="7.4" y2="7.8"/>
	<line id="直线-6" class="st14" x1="-10.3" y1="5.2" x2="-8.2" y2="5.2"/>
</g>
<g id="编组备份-11" transform="translate(332.000000, 167.000000)">
	<rect id="矩形备份_12_" x="-8.9" y="2.1" class="st6" width="113.9" height="38.9"/>
	<rect id="矩形_26_" x="-9.7" y="0.3" class="st7" width="113.2" height="39.2"/>
</g>
<g id="编组备份-13" transform="translate(251.000000, 346.000000)">
	<rect id="矩形备份_13_" x="-8.9" y="2.2" class="st6" width="115.9" height="40.8"/>
	<rect id="矩形_27_" x="-9.7" y="0.3" class="st7" width="115.2" height="41.2"/>
</g>
<g id="编组备份-14" transform="translate(409.000000, 346.000000)">
	<rect id="矩形备份_14_" x="-8.9" y="2.2" class="st6" width="115.9" height="40.8"/>
	<rect id="矩形_28_" x="-9.7" y="0.3" class="st7" width="115.2" height="41.2"/>
</g>
<g id="编组备份-12" transform="translate(252.000000, 258.000000)">
	<rect id="矩形备份_15_" x="-7.9" y="2.2" class="st6" width="271.9" height="40.8"/>
	<rect id="矩形_29_" x="-9.7" y="0.3" class="st7" width="272.2" height="41.2"/>
</g>
<g id="箭头备份-9" transform="translate(471.500000, 325.500000) scale(1, -1) translate(-471.500000, -325.500000) translate(468.000000, 304.000000)">
	<polygon id="三角形_9_" class="st3" points="-6.5,43 -10,38.7 -3,38.7 	"/>
	<line id="直线_9_" class="st4" x1="-6.5" y1="0.5" x2="-6.5" y2="39.2"/>
</g>
<g id="_x31_521200062234-32" transform="translate(349.000000, 175.000000)">
	<path id="_复合路径__1_" class="st12" d="M4.3,20.3c-0.6,0.6-0.6,1.6,0,2.3s1.6,0.6,2.2,0c0.6-0.6,0.6-1.6,0-2.3
		c-0.3-0.3-0.7-0.5-1.1-0.5S4.6,20,4.3,20.3z M8.8,3.3C5.4-0.1,0.3-1-3.9,1.2s-6.6,6.8-6,11.6c0.6,4.8,4.3,8.6,9,9.4l0.2-0.2
		l1.2-1.1l5-5.1c1.8-1.8,2.3-4.6,1.4-7s-3.3-4-5.8-4s-4.8,1.6-5.8,4s-0.4,5.1,1.4,7c0.1,0.2,0.3,0.3,0.5,0.5l0.5-0.5l0.6-0.6
		l2.4-2.4c0.7,0.2,1.4-0.1,1.8-0.7c0.4-0.6,0.3-1.4-0.2-1.9S1,9.6,0.4,9.9s-0.9,1.1-0.7,1.8L-2.8,14c-1.4-2.1-1.1-4.9,0.9-6.5
		s4.8-1.3,6.4,0.6s1.6,4.8-0.2,6.6l-2.9,3l-2.8,2.9C-3,20.1-4.5,19.2-5.7,18c-3.7-3.8-3.7-9.8,0-13.6s9.6-3.7,13.3,0s3.7,9.8,0,13.6
		L7,18.6l1.1,1.1l0.6-0.6c2.1-2.1,3.2-5,3.2-7.9C12,8.2,10.8,5.4,8.8,3.3z"/>
</g>
<g id="_x31_521191354421-32" transform="translate(349.000000, 271.000000)">
	<path id="_复合路径__2_" class="st11" d="M-0.5,3.6C-0.8,3.6-1,3.8-1,4v6.6c0,0.1,0,0.2,0.1,0.3C-0.8,11-0.7,11-0.5,11
		c0.1,0,0.2,0,0.2-0.1L5,7.6c0.1-0.1,0.2-0.2,0.2-0.3S5.2,7,5,6.9l-5.3-3.2C-0.4,3.6-0.5,3.6-0.5,3.6z M0.7,6.2l1.8,1.1L0.7,8.4V6.2
		z M13-2h-23v21h23V2.8h-1.6v11.3H-8.4V-0.4H13V-2z M11.4,15.8v1.6H-8.4v-1.6C-8.4,15.8,11.4,15.8,11.4,15.8z"/>
</g>
<g id="_x31_521191354421-32备份" transform="translate(427.000000, 356.000000)">
	<path id="_复合路径__3_" class="st11" d="M-0.5,5.6C-0.8,5.6-1,5.8-1,6v6.6c0,0.1,0,0.2,0.1,0.3C-0.8,13-0.7,13-0.5,13
		c0.1,0,0.2,0,0.2-0.1L5,9.6c0.1-0.1,0.2-0.2,0.2-0.3S5.2,9,5,8.9l-5.3-3.2C-0.4,5.6-0.5,5.6-0.5,5.6z M0.7,8.2l1.8,1.1l-1.8,1.1
		V8.2z M13,0h-23v21h23V4.8h-1.6v11.3H-8.4V1.6H13V0z M11.4,17.8v1.6H-8.4v-1.6H11.4z"/>
</g>
<text transform="matrix(1 0 0 1 384.4417 81.7413)" class="st17 st18 st19">API接口</text>
<text transform="matrix(1 0 0 1 105.0266 480.8745)" class="st17 st18 st19">RTMP</text>
<text transform="matrix(1 0 0 1 166.6972 544.9459)" class="st17 st18 st19">直播推流</text>
<text transform="matrix(1 0 0 1 303.7164 485.1313)" class="st17 st18 st19">点播转码</text>
<text transform="matrix(1 0 0 1 434.907 567.4865)" class="st17 st18 st19">点播流</text>
<text transform="matrix(1 0 0 1 653.6514 489.1313)" class="st17 st18 st19">FLV/RTMP/HLS</text>
<g class="st20">
	<text transform="matrix(1 0 0 1 19 132.7761)" class="st18 st19">推流SDK</text>
</g>
<g class="st20">
	<text transform="matrix(1 0 0 1 581.4535 132.7761)" class="st18 st19">播放SDK</text>
</g>
<text transform="matrix(1 0 0 1 277.9084 534.139)" class="st21 st18 st19">腾讯云点播存储</text>
<text transform="matrix(1 0 0 1 77.0679 535.139)" class="st21 st18 st19">上行加速节点</text>
<text transform="matrix(1 0 0 1 89.9719 193.8001)" class="st21 st18 st19">手机直播</text>
<text transform="matrix(1 0 0 1 642.7474 199.3002)" class="st21 st18 st19">手机观看</text>
<text transform="matrix(1 0 0 1 636.2954 285.1197)" class="st21 st18 st19">浏览器观看</text>
<text transform="matrix(1 0 0 1 640.5967 370.9901)" class="st21 st18 st19">电视观看</text>
<text transform="matrix(1 0 0 1 93.1979 281.8263)" class="st21 st18 st19">PC直播</text>
<text transform="matrix(1 0 0 1 77.0679 374.0618)" class="st21 st18 st19">视频拍摄设备</text>
<text transform="matrix(1 0 0 1 355.3323 32.9537)" class="st21 st18 st19">管理控制台</text>
<text transform="matrix(1 0 0 1 96.4239 27.5869)" class="st21 st18 st19">主播</text>
<text transform="matrix(1 0 0 1 649.1994 27.5869)" class="st21 st18 st19">观众</text>
<text transform="matrix(1 0 0 1 371.4623 191.7374)" class="st21 st18 st19">智能处理</text>
<text transform="matrix(1 0 0 1 372.5377 283.2664)" class="st21 st18 st19">直播源站</text>
<text transform="matrix(1 0 0 1 292.9631 371.0618)" class="st21 st18 st19">直播录制</text>
<text transform="matrix(1 0 0 1 449.9616 371.0616)" class="st21 st18 st19">直播转码</text>
<text transform="matrix(1 0 0 1 629.8434 530.7722)" class="st21 st18 st19">CDN分发节点</text>
<g id="_x31_521191408829-32" transform="translate(270.000000, 355.000000)">
	<path id="形状_1_" class="st12" d="M-5,0h-0.3C-7-0.1-8.6,1.1-9,2.8c-0.6,3.2-1.8,11.7-0.1,18c0.4,1.6,1.7,2.2,3.6,2.2
		c5.5,0,15.4-5.8,17.3-9.9C14.1,8,0.4,1.3-5,0z M10.2,12.4c-1.8,3.9-11.4,9-15.7,9c-1.7,0-1.9-0.7-2-1C-9,14.6-8.1,6.6-7.3,3.1
		c0.2-1,1.1-1.6,2-1.5l0,0C-0.9,2.7,8.2,7.2,10,10.9C10.3,11.3,10.4,11.9,10.2,12.4L10.2,12.4z M-1.7,8.2c-0.1,0-0.1-0.1-0.2-0.1
		c-0.2,0-0.4,0.2-0.4,0.4v6.7c0,0.1,0,0.2,0.1,0.3s0.2,0.1,0.3,0.1s0.2,0,0.2-0.1l5.4-3.4c0.1-0.1,0.2-0.2,0.2-0.4s-0.1-0.3-0.2-0.4
		L-1.7,8.2z M-0.7,13v-2.3l1.9,1.1L-0.7,13z"/>
</g>
<g id="箭头备份-10" transform="translate(458.000000, 302.000000)">
	<polygon id="三角形_10_" class="st3" points="-6.5,41 -10,36.8 -3,36.8 	"/>
	<line id="直线_10_" class="st4" x1="-6.5" y1="0.5" x2="-6.5" y2="37.3"/>
</g>
<g id="箭头备份-11" transform="translate(306.000000, 302.000000)">
	<polygon id="三角形_11_" class="st3" points="-6.5,41 -10,36.8 -3,36.8 	"/>
	<line id="直线_11_" class="st22" x1="-6.5" y1="0.5" x2="-6.5" y2="37.3"/>
</g>
<g transform="translate(0 0)">
	<g>
		<g>
			<path class="st23" d="M237.8,125.9c-0.9-1-2.2-1.5-3.4-1.5c-1.1,0-2.2,0.4-3.1,1.1c-0.4,0.3-0.8,0.7-1.3,1.1l-7.6,7.3
				c0.4,0.1,0.9,0.1,1.4,0.1h10.8c1.1-0.1,2.2-0.5,3.1-1.3C239.7,130.9,239.7,127.8,237.8,125.9L237.8,125.9L237.8,125.9z
				 M236.4,131.4c-0.6,0.6-1.3,0.8-2.1,0.8h-7.2l4.2-4.1c0.2-0.2,0.6-0.6,1-1c0.6-0.5,1.3-0.8,2.1-0.8c1.7,0,2.9,1.3,2.9,3
				C237.3,130.1,236.9,130.9,236.4,131.4L236.4,131.4z"/>
			<path class="st24" d="M226.1,125.4c-0.8-0.6-1.8-1-2.9-1c-2.7,0-4.8,2.2-4.8,4.8c0,1.3,0.5,2.5,1.5,3.4c0.8,0.7,1.7,1.2,2.7,1.3
				l1.9-1.8h-1.1c-0.8,0-1.5-0.3-2.1-0.8c-1.1-1.1-1.1-3,0-4.1c0.6-0.6,1.3-0.9,2-0.9c0.8,0,1.5,0.3,2,0.8c0.4,0.3,1.3,1.1,1.6,1.4
				l1.3-1.3C227.5,126.6,226.6,125.9,226.1,125.4z"/>
			<path class="st25" d="M234.8,123.3c-1.2-3.4-4.9-5.2-8.3-3.9c-2.2,0.8-3.9,2.7-4.3,5.1c0.3-0.1,0.6-0.1,0.8-0.1
				c0.4,0,0.8,0.1,1.1,0.1l0,0c0.5-2.5,3-4.1,5.5-3.5c1.4,0.3,2.5,1.3,3.2,2.5c0.6-0.2,1.2-0.3,1.8-0.2
				C234.8,123.4,234.9,123.4,234.8,123.3z"/>
		</g>
		<g>
			<path d="M263,121.5h-6.2v0.9h1.8v3.2h-2.1v0.8h2.1v5.4h1v-5.4h2.4v5.4h1.8V131H263V121.5z M259.6,125.7v-3.2h2.4v3.2H259.6z"/>
			<rect x="245.9" y="129.6" width="4.8" height="0.9"/>
			<path d="M242.6,127.9c0,1.3-0.1,2.7-0.4,3.9c0,0.1,0,0.1,0.1,0.1h0.9c0.2-1.2,0.3-2.4,0.3-3.6h1.3v2.7H244c0,0-0.1,0-0.1,0.1
				l0.3,0.8h1.6v-10.4h-3.1L242.6,127.9L242.6,127.9z M243.5,127.5v-2.1h1.3v2.1H243.5z M244.7,122.5v2.1h-1.3v-2.1H244.7z"/>
			<path d="M251.1,125.2h1.2v-0.8h-3.5c0.1-0.3,0.2-0.6,0.3-0.8h3v-0.8h-0.8l0.3-1.1c0-0.1,0-0.1-0.1-0.1h-0.8l-0.4,1.2h-1.1
				c0.1-0.4,0.2-1,0.3-1.5c0-0.1,0-0.1-0.1-0.1h-0.8c-0.1,0.6-0.2,1.1-0.3,1.7h-0.5l-0.4-1.1h-0.8c0,0-0.1,0-0.1,0.1l0.3,1.1H246
				v0.7h2c-0.1,0.3-0.2,0.6-0.3,0.8h-1.9v0.8h1.4c-0.4,0.5-0.8,1-1.4,1.3v0.8c0,0.1,0,0.1,0.2,0c0.3-0.1,0.6-0.3,0.8-0.5h3.4v1.2
				h-2.7l0.1-0.7c0,0,0-0.1-0.1-0.1l0,0h-0.8l-0.1,1.5c0,0,0,0.1,0.1,0.1l0,0h4.5v2.2h-2.1c0,0-0.1,0-0.1,0.1l0.3,0.8h2.8v-3.9H251
				v-1.6c0.4,0.3,0.8,0.6,1.2,0.9c0.1,0.1,0.2,0,0.2,0v-0.9C252,126.3,251.5,125.7,251.1,125.2z M250.1,125.2
				c0.2,0.3,0.4,0.6,0.7,0.9h-2.9c0.3-0.3,0.4-0.6,0.6-0.9H250.1z"/>
			<path d="M257.5,128.9l-1.7,1.3v-5.8h-2.2v1h1.3v5.5l-0.5,0.4l0.5,0.7l2.7-2L257.5,128.9L257.5,128.9
				C257.6,128.9,257.5,128.9,257.5,128.9L257.5,128.9z"/>
			<path d="M255,123.5h1.1v-0.1l0,0l-1.3-2h-1c0,0-0.1,0-0.1,0.1v0.1L255,123.5z"/>
			<rect x="265.9" y="121.8" width="7.7" height="1"/>
			<path d="M268.7,126.5h6.1v-1h-9.9v1h2.7l-2,5.3v0.1h8.6c0.1,0,0.1-0.1,0.1-0.1l0,0l0,0l-1.3-3.4h-1.1c0,0-0.1,0-0.1,0.1
				c0,0,0,0,0,0.1l0.9,2.4H267L268.7,126.5z"/>
		</g>
	</g>
</g>
</svg>
